<svg width="54" height="55" viewBox="0 0 54 55" fill="none" xmlns="http://www.w3.org/2000/svg">
<mask id="path-1-inside-1_4034_2311" fill="white">
<path d="M41.9854 1.52734L42.2969 4.5498L49.8281 3.82812L51.2949 3.6875L50.8838 5.10156L49.043 11.4551L51.8965 11.875L53.2949 12.0801L52.6357 13.3311L50.0342 18.2646C51.0755 20.9844 51.6475 23.9365 51.6475 27.0225C51.6475 30.1599 51.0561 33.1589 49.9814 35.916L50.1543 36.2285L52.9688 41.335L53.71 42.6797L52.1807 42.8135L49.1543 43.0801L49.7617 50.6211L49.8799 52.0889L48.4717 51.6572L42.1475 49.7197L41.6836 52.5674L41.458 53.9619L40.2168 53.2842L34.7754 50.3096C32.3746 51.0955 29.811 51.5225 27.1475 51.5225C24.2114 51.5225 21.396 51.0056 18.7871 50.0586L18.2041 50.3916L13.1406 53.2832L11.8076 54.0449L11.6504 52.5176L11.3379 49.4951L3.80762 50.2168L2.34082 50.3574L2.75195 48.9434L4.59277 42.5898L1.73926 42.1699L0.34082 41.9648L1 40.7139L3.99023 35.04C3.12059 32.5279 2.64746 29.8304 2.64746 27.0225C2.64746 24.3013 3.09128 21.6838 3.91016 19.2383L3.79004 19.0371L0.790039 14.0371L0 12.7207L1.52344 12.5303L4.53809 12.1533L3.6543 4.63965L3.48242 3.17676L4.90527 3.55664L11.2969 5.26074L11.6553 2.39844L11.8301 0.996094L13.0947 1.62793L18.2305 4.19531C20.9938 3.11505 24.0015 2.52246 27.1475 2.52246C29.9308 2.52246 32.6053 2.9877 35.0986 3.84277L35.4316 3.65332L40.4951 0.761719L41.8281 0L41.9854 1.52734Z"/>
</mask>
<path d="M41.9854 1.52734L42.2969 4.5498L49.8281 3.82812L51.2949 3.6875L50.8838 5.10156L49.043 11.4551L51.8965 11.875L53.2949 12.0801L52.6357 13.3311L50.0342 18.2646C51.0755 20.9844 51.6475 23.9365 51.6475 27.0225C51.6475 30.1599 51.0561 33.1589 49.9814 35.916L50.1543 36.2285L52.9688 41.335L53.71 42.6797L52.1807 42.8135L49.1543 43.0801L49.7617 50.6211L49.8799 52.0889L48.4717 51.6572L42.1475 49.7197L41.6836 52.5674L41.458 53.9619L40.2168 53.2842L34.7754 50.3096C32.3746 51.0955 29.811 51.5225 27.1475 51.5225C24.2114 51.5225 21.396 51.0056 18.7871 50.0586L18.2041 50.3916L13.1406 53.2832L11.8076 54.0449L11.6504 52.5176L11.3379 49.4951L3.80762 50.2168L2.34082 50.3574L2.75195 48.9434L4.59277 42.5898L1.73926 42.1699L0.34082 41.9648L1 40.7139L3.99023 35.04C3.12059 32.5279 2.64746 29.8304 2.64746 27.0225C2.64746 24.3013 3.09128 21.6838 3.91016 19.2383L3.79004 19.0371L0.790039 14.0371L0 12.7207L1.52344 12.5303L4.53809 12.1533L3.6543 4.63965L3.48242 3.17676L4.90527 3.55664L11.2969 5.26074L11.6553 2.39844L11.8301 0.996094L13.0947 1.62793L18.2305 4.19531C20.9938 3.11505 24.0015 2.52246 27.1475 2.52246C29.9308 2.52246 32.6053 2.9877 35.0986 3.84277L35.4316 3.65332L40.4951 0.761719L41.8281 0L41.9854 1.52734Z" fill="black" fill-opacity="0.4"/>
<path d="M41.9854 1.52734L39.0011 1.83454L39.0012 1.83492L41.9854 1.52734ZM42.2969 4.5498L39.3127 4.85738L39.6181 7.82024L42.583 7.53613L42.2969 4.5498ZM49.8281 3.82812L50.1143 6.81445L50.1144 6.81443L49.8281 3.82812ZM51.2949 3.6875L54.1756 4.52505L55.4101 0.279214L51.0086 0.701193L51.2949 3.6875ZM50.8838 5.10156L48.0031 4.26401L48.0023 4.2667L50.8838 5.10156ZM49.043 11.4551L46.1615 10.6202L45.2047 13.9225L48.6062 14.4231L49.043 11.4551ZM51.8965 11.875L51.4597 14.843L51.4612 14.8433L51.8965 11.875ZM53.2949 12.0801L55.949 13.4786L57.9258 9.7271L53.7302 9.11182L53.2949 12.0801ZM52.6357 13.3311L55.2894 14.7304L55.2898 14.7296L52.6357 13.3311ZM50.0342 18.2646L47.3805 16.8653L46.7464 18.0678L47.2325 19.3374L50.0342 18.2646ZM49.9814 35.916L47.1863 34.8265L46.6754 36.1372L47.3563 37.3681L49.9814 35.916ZM50.1543 36.2285L52.7817 34.7804L52.7795 34.7765L50.1543 36.2285ZM52.9688 41.335L50.3414 42.7831L50.3414 42.7831L52.9688 41.335ZM53.71 42.6797L53.9714 45.6683L58.5615 45.2667L56.3373 41.2315L53.71 42.6797ZM52.1807 42.8135L51.9192 39.8249L51.9174 39.8251L52.1807 42.8135ZM49.1543 43.0801L48.891 40.0917L45.9249 40.3529L46.164 43.3209L49.1543 43.0801ZM49.7617 50.6211L52.752 50.3804L52.752 50.3802L49.7617 50.6211ZM49.8799 52.0889L49.0007 54.9571L53.2247 56.2519L52.8702 51.8481L49.8799 52.0889ZM48.4717 51.6572L49.3509 48.7889L49.3505 48.7888L48.4717 51.6572ZM42.1475 49.7197L43.0262 46.8513L39.7392 45.8443L39.1865 49.2374L42.1475 49.7197ZM41.6836 52.5674L38.7226 52.0851L38.7221 52.0883L41.6836 52.5674ZM41.458 53.9619L40.0203 56.595L43.7423 58.6273L44.4195 54.441L41.458 53.9619ZM40.2168 53.2842L38.7778 55.9165L38.7791 55.9172L40.2168 53.2842ZM34.7754 50.3096L36.2144 47.6772L35.0756 47.0547L33.8421 47.4585L34.7754 50.3096ZM18.7871 50.0586L19.8108 47.2386L18.5052 46.7647L17.2992 47.4536L18.7871 50.0586ZM18.2041 50.3916L19.6918 52.9967L19.692 52.9966L18.2041 50.3916ZM13.1406 53.2832L11.6529 50.6781L11.6522 50.6785L13.1406 53.2832ZM11.8076 54.0449L8.82339 54.3521L9.29524 58.9358L13.296 56.6497L11.8076 54.0449ZM11.6504 52.5176L14.6346 52.2104L14.6345 52.209L11.6504 52.5176ZM11.3379 49.4951L14.322 49.1866L14.0157 46.2247L11.0517 46.5088L11.3379 49.4951ZM3.80762 50.2168L3.52142 47.2305L3.52131 47.2305L3.80762 50.2168ZM2.34082 50.3574L-0.539892 49.5199L-1.77435 53.7657L2.62712 53.3437L2.34082 50.3574ZM2.75195 48.9434L5.63267 49.7809L5.63345 49.7782L2.75195 48.9434ZM4.59277 42.5898L7.47427 43.4247L8.43106 40.1224L5.02955 39.6218L4.59277 42.5898ZM1.73926 42.1699L2.17603 39.2019L2.17455 39.2017L1.73926 42.1699ZM0.34082 41.9648L-2.31326 40.5663L-4.29005 44.3178L-0.0944681 44.9331L0.34082 41.9648ZM1 40.7139L-1.65398 39.3152L-1.65408 39.3153L1 40.7139ZM3.99023 35.04L6.64422 36.4387L7.25072 35.2879L6.82518 34.0587L3.99023 35.04ZM3.91016 19.2383L6.75492 20.1908L7.19257 18.8838L6.48594 17.7003L3.91016 19.2383ZM3.79004 19.0371L6.36583 17.4991L6.36252 17.4936L3.79004 19.0371ZM0.790039 14.0371L3.36252 12.4936L3.36235 12.4933L0.790039 14.0371ZM0 12.7207L-0.372104 9.74387L-4.94248 10.3152L-2.57231 14.2645L0 12.7207ZM1.52344 12.5303L1.89554 15.5071L1.89566 15.5071L1.52344 12.5303ZM4.53809 12.1533L4.91031 15.1301L7.86545 14.7606L7.51755 11.8029L4.53809 12.1533ZM3.6543 4.63965L0.674791 4.98971L0.674837 4.9901L3.6543 4.63965ZM3.48242 3.17676L4.25628 0.278284L-0.012664 -0.861467L0.502916 3.52682L3.48242 3.17676ZM4.90527 3.55664L4.13142 6.45511L4.13242 6.45538L4.90527 3.55664ZM11.2969 5.26074L10.524 8.15948L13.8464 9.04529L14.2736 5.63347L11.2969 5.26074ZM11.6553 2.39844L14.632 2.77117L14.6322 2.76952L11.6553 2.39844ZM11.8301 0.996094L13.1709 -1.6876L9.37762 -3.58277L8.85312 0.62501L11.8301 0.996094ZM13.0947 1.62793L14.4362 -1.05545L14.4355 -1.05577L13.0947 1.62793ZM18.2305 4.19531L16.889 6.8787L18.0813 7.47471L19.3227 6.9894L18.2305 4.19531ZM35.0986 3.84277L34.1254 6.68054L35.4057 7.11959L36.5821 6.45032L35.0986 3.84277ZM35.4316 3.65332L36.9151 6.26087L36.9194 6.25845L35.4316 3.65332ZM40.4951 0.761719L41.9828 3.36685L41.9835 3.36645L40.4951 0.761719ZM41.8281 0L44.8124 -0.3072L44.3405 -4.8909L40.3397 -2.60473L41.8281 0ZM41.9854 1.52734L39.0012 1.83492L39.3127 4.85738L42.2969 4.5498L45.2811 4.24223L44.9695 1.21976L41.9854 1.52734ZM42.2969 4.5498L42.583 7.53613L50.1143 6.81445L49.8281 3.82812L49.542 0.841804L42.0107 1.56348L42.2969 4.5498ZM49.8281 3.82812L50.1144 6.81443L51.5812 6.67381L51.2949 3.6875L51.0086 0.701193L49.5418 0.841818L49.8281 3.82812ZM51.2949 3.6875L48.4142 2.84994L48.0031 4.26401L50.8838 5.10156L53.7645 5.93912L54.1756 4.52505L51.2949 3.6875ZM50.8838 5.10156L48.0023 4.2667L46.1615 10.6202L49.043 11.4551L51.9245 12.2899L53.7653 5.93642L50.8838 5.10156ZM49.043 11.4551L48.6062 14.4231L51.4597 14.843L51.8965 11.875L52.3333 8.90697L49.4797 8.48704L49.043 11.4551ZM51.8965 11.875L51.4612 14.8433L52.8596 15.0483L53.2949 12.0801L53.7302 9.11182L52.3318 8.90675L51.8965 11.875ZM53.2949 12.0801L50.6408 10.6816L49.9817 11.9325L52.6357 13.3311L55.2898 14.7296L55.949 13.4786L53.2949 12.0801ZM52.6357 13.3311L49.9821 11.9317L47.3805 16.8653L50.0342 18.2646L52.6878 19.664L55.2894 14.7304L52.6357 13.3311ZM50.0342 18.2646L47.2325 19.3374C48.1452 21.7209 48.6475 24.3099 48.6475 27.0225H51.6475H54.6475C54.6475 23.5631 54.0059 20.2478 52.8358 17.1919L50.0342 18.2646ZM51.6475 27.0225H48.6475C48.6475 29.78 48.1282 32.41 47.1863 34.8265L49.9814 35.916L52.7766 37.0055C53.984 33.9078 54.6475 30.5397 54.6475 27.0225H51.6475ZM49.9814 35.916L47.3563 37.3681L47.5291 37.6806L50.1543 36.2285L52.7795 34.7765L52.6066 34.464L49.9814 35.916ZM50.1543 36.2285L47.5269 37.6766L50.3414 42.7831L52.9688 41.335L55.5961 39.8869L52.7817 34.7804L50.1543 36.2285ZM52.9688 41.335L50.3414 42.7831L51.0826 44.1279L53.71 42.6797L56.3373 41.2315L55.5961 39.8868L52.9688 41.335ZM53.71 42.6797L53.4485 39.6911L51.9192 39.8249L52.1807 42.8135L52.4421 45.8021L53.9714 45.6683L53.71 42.6797ZM52.1807 42.8135L51.9174 39.8251L48.891 40.0917L49.1543 43.0801L49.4176 46.0685L52.4439 45.8019L52.1807 42.8135ZM49.1543 43.0801L46.164 43.3209L46.7714 50.862L49.7617 50.6211L52.752 50.3802L52.1446 42.8392L49.1543 43.0801ZM49.7617 50.6211L46.7714 50.8618L46.8896 52.3296L49.8799 52.0889L52.8702 51.8481L52.752 50.3804L49.7617 50.6211ZM49.8799 52.0889L50.7591 49.2206L49.3509 48.7889L48.4717 51.6572L47.5925 54.5255L49.0007 54.9571L49.8799 52.0889ZM48.4717 51.6572L49.3505 48.7888L43.0262 46.8513L42.1475 49.7197L41.2687 52.5881L47.5929 54.5256L48.4717 51.6572ZM42.1475 49.7197L39.1865 49.2374L38.7226 52.0851L41.6836 52.5674L44.6446 53.0497L45.1084 50.2021L42.1475 49.7197ZM41.6836 52.5674L38.7221 52.0883L38.4965 53.4828L41.458 53.9619L44.4195 54.441L44.6451 53.0464L41.6836 52.5674ZM41.458 53.9619L42.8957 51.3289L41.6545 50.6511L40.2168 53.2842L38.7791 55.9172L40.0203 56.595L41.458 53.9619ZM40.2168 53.2842L41.6558 50.6518L36.2144 47.6772L34.7754 50.3096L33.3364 52.9419L38.7778 55.9165L40.2168 53.2842ZM34.7754 50.3096L33.8421 47.4585C31.7373 48.1475 29.4885 48.5225 27.1475 48.5225V51.5225V54.5225C30.1334 54.5225 33.0118 54.0435 35.7087 53.1607L34.7754 50.3096ZM27.1475 51.5225V48.5225C24.5657 48.5225 22.0965 48.0684 19.8108 47.2386L18.7871 50.0586L17.7635 52.8785C20.6955 53.9429 23.857 54.5225 27.1475 54.5225V51.5225ZM18.7871 50.0586L17.2992 47.4536L16.7162 47.7866L18.2041 50.3916L19.692 52.9966L20.2751 52.6636L18.7871 50.0586ZM18.2041 50.3916L16.7164 47.7865L11.6529 50.6781L13.1406 53.2832L14.6283 55.8883L19.6918 52.9967L18.2041 50.3916ZM13.1406 53.2832L11.6522 50.6785L10.3192 51.4402L11.8076 54.0449L13.296 56.6497L14.629 55.8879L13.1406 53.2832ZM11.8076 54.0449L14.7918 53.7377L14.6346 52.2104L11.6504 52.5176L8.66616 52.8248L8.82339 54.3521L11.8076 54.0449ZM11.6504 52.5176L14.6345 52.209L14.322 49.1866L11.3379 49.4951L8.3538 49.8036L8.6663 52.8261L11.6504 52.5176ZM11.3379 49.4951L11.0517 46.5088L3.52142 47.2305L3.80762 50.2168L4.09382 53.2031L11.6241 52.4814L11.3379 49.4951ZM3.80762 50.2168L3.52131 47.2305L2.05452 47.3711L2.34082 50.3574L2.62712 53.3437L4.09392 53.2031L3.80762 50.2168ZM2.34082 50.3574L5.22153 51.195L5.63267 49.7809L2.75195 48.9434L-0.128759 48.1058L-0.539892 49.5199L2.34082 50.3574ZM2.75195 48.9434L5.63345 49.7782L7.47427 43.4247L4.59277 42.5898L1.71128 41.755L-0.12954 48.1085L2.75195 48.9434ZM4.59277 42.5898L5.02955 39.6218L2.17603 39.2019L1.73926 42.1699L1.30248 45.138L4.156 45.5579L4.59277 42.5898ZM1.73926 42.1699L2.17455 39.2017L0.776109 38.9966L0.34082 41.9648L-0.0944681 44.9331L1.30397 45.1382L1.73926 42.1699ZM0.34082 41.9648L2.9949 43.3634L3.65408 42.1124L1 40.7139L-1.65408 39.3153L-2.31326 40.5663L0.34082 41.9648ZM1 40.7139L3.65398 42.1126L6.64422 36.4387L3.99023 35.04L1.33625 33.6413L-1.65398 39.3152L1 40.7139ZM3.99023 35.04L6.82518 34.0587C6.06314 31.8573 5.64746 29.4914 5.64746 27.0225H2.64746H-0.352539C-0.352539 30.1695 0.178039 33.1984 1.15529 36.0214L3.99023 35.04ZM2.64746 27.0225H5.64746C5.64746 24.6294 6.03749 22.3334 6.75492 20.1908L3.91016 19.2383L1.0654 18.2857C0.145076 21.0343 -0.352539 23.9732 -0.352539 27.0225H2.64746ZM3.91016 19.2383L6.48594 17.7003L6.36582 17.4991L3.79004 19.0371L1.21426 20.5751L1.33437 20.7762L3.91016 19.2383ZM3.79004 19.0371L6.36252 17.4936L3.36252 12.4936L0.790039 14.0371L-1.78244 15.5806L1.21756 20.5806L3.79004 19.0371ZM0.790039 14.0371L3.36235 12.4933L2.57231 11.1769L0 12.7207L-2.57231 14.2645L-1.78227 15.5809L0.790039 14.0371ZM0 12.7207L0.372104 15.6975L1.89554 15.5071L1.52344 12.5303L1.15133 9.55344L-0.372104 9.74387L0 12.7207ZM1.52344 12.5303L1.89566 15.5071L4.91031 15.1301L4.53809 12.1533L4.16586 9.1765L1.15121 9.55345L1.52344 12.5303ZM4.53809 12.1533L7.51755 11.8029L6.63376 4.28919L3.6543 4.63965L0.674837 4.9901L1.55863 12.5038L4.53809 12.1533ZM3.6543 4.63965L6.6338 4.28959L6.46193 2.8267L3.48242 3.17676L0.502916 3.52682L0.674791 4.98971L3.6543 4.63965ZM3.48242 3.17676L2.70857 6.07523L4.13142 6.45511L4.90527 3.55664L5.67913 0.658167L4.25628 0.278284L3.48242 3.17676ZM4.90527 3.55664L4.13242 6.45538L10.524 8.15948L11.2969 5.26074L12.0697 2.362L5.67812 0.657899L4.90527 3.55664ZM11.2969 5.26074L14.2736 5.63347L14.632 2.77117L11.6553 2.39844L8.67852 2.02571L8.32012 4.88801L11.2969 5.26074ZM11.6553 2.39844L14.6322 2.76952L14.807 1.36718L11.8301 0.996094L8.85312 0.62501L8.67831 2.02735L11.6553 2.39844ZM11.8301 0.996094L10.4893 3.67979L11.7539 4.31163L13.0947 1.62793L14.4355 -1.05577L13.1709 -1.6876L11.8301 0.996094ZM13.0947 1.62793L11.7533 4.31131L16.889 6.8787L18.2305 4.19531L19.5719 1.51193L14.4362 -1.05545L13.0947 1.62793ZM18.2305 4.19531L19.3227 6.9894C21.7434 6.04312 24.3809 5.52246 27.1475 5.52246V2.52246V-0.477539C23.622 -0.477539 20.2442 0.186993 17.1382 1.40122L18.2305 4.19531ZM27.1475 2.52246V5.52246C29.5944 5.52246 31.9403 5.93116 34.1254 6.68054L35.0986 3.84277L36.0718 1.00501C33.2703 0.0442337 30.2671 -0.477539 27.1475 -0.477539V2.52246ZM35.0986 3.84277L36.5821 6.45032L36.9151 6.26087L35.4316 3.65332L33.9482 1.04577L33.6152 1.23523L35.0986 3.84277ZM35.4316 3.65332L36.9194 6.25845L41.9828 3.36685L40.4951 0.761719L39.0074 -1.84341L33.9439 1.04819L35.4316 3.65332ZM40.4951 0.761719L41.9835 3.36645L43.3165 2.60473L41.8281 0L40.3397 -2.60473L39.0067 -1.84301L40.4951 0.761719ZM41.8281 0L38.8439 0.3072L39.0011 1.83454L41.9854 1.52734L44.9696 1.22014L44.8124 -0.3072L41.8281 0Z" fill="black" mask="url(#path-1-inside-1_4034_2311)"/>
</svg>
